<mxfile host="Electron" agent="Mozilla/5.0 (Windows NT 10.0; Win64; x64) AppleWebKit/537.36 (KHTML, like Gecko) draw.io/26.1.1 Chrome/132.0.6834.210 Electron/34.3.3 Safari/537.36" version="26.1.1">
  <diagram name="Page-1" id="0WmowbN-KGJnbID1OacJ">
    <mxGraphModel dx="3718" dy="1768" grid="1" gridSize="10" guides="1" tooltips="1" connect="1" arrows="1" fold="1" page="1" pageScale="1" pageWidth="850" pageHeight="1100" math="0" shadow="0">
      <root>
        <mxCell id="0" />
        <mxCell id="1" parent="0" />
        <object placeholders="1" c4Name="SPA" c4Type="Container" c4Technology="JavaScript and ReactJS" c4Description="Các chức năng của hệ thống quản lý thư viện" label="&lt;font style=&quot;font-size: 16px&quot;&gt;&lt;b&gt;%c4Name%&lt;/b&gt;&lt;/font&gt;&lt;div&gt;[%c4Type%: %c4Technology%]&lt;/div&gt;&lt;br&gt;&lt;div&gt;&lt;font style=&quot;font-size: 11px&quot;&gt;&lt;font color=&quot;#E6E6E6&quot;&gt;%c4Description%&lt;/font&gt;&lt;/div&gt;" id="DwANkHHpPK6kCwV7qqPZ-3">
          <mxCell style="rounded=1;whiteSpace=wrap;html=1;fontSize=11;labelBackgroundColor=none;fillColor=#23A2D9;fontColor=#ffffff;align=center;arcSize=10;strokeColor=#0E7DAD;metaEdit=1;resizable=0;points=[[0.25,0,0],[0.5,0,0],[0.75,0,0],[1,0.25,0],[1,0.5,0],[1,0.75,0],[0.75,1,0],[0.5,1,0],[0.25,1,0],[0,0.75,0],[0,0.5,0],[0,0.25,0]];" parent="1" vertex="1">
            <mxGeometry x="305" y="40" width="240" height="120" as="geometry" />
          </mxCell>
        </object>
        <object placeholders="1" c4Name="Mobile Application" c4Type="Container" c4Technology="Flutter" c4Description="Các chức năng giới hạn của hệ thống quản lí thư viện trên mobile" label="&lt;font style=&quot;font-size: 16px&quot;&gt;&lt;b&gt;%c4Name%&lt;/b&gt;&lt;/font&gt;&lt;div&gt;[%c4Type%: %c4Technology%]&lt;/div&gt;&lt;br&gt;&lt;div&gt;&lt;font style=&quot;font-size: 11px&quot;&gt;&lt;font color=&quot;#E6E6E6&quot;&gt;%c4Description%&lt;/font&gt;&lt;/div&gt;" id="DwANkHHpPK6kCwV7qqPZ-4">
          <mxCell style="rounded=1;whiteSpace=wrap;html=1;fontSize=11;labelBackgroundColor=none;fillColor=#23A2D9;fontColor=#ffffff;align=center;arcSize=10;strokeColor=#0E7DAD;metaEdit=1;resizable=0;points=[[0.25,0,0],[0.5,0,0],[0.75,0,0],[1,0.25,0],[1,0.5,0],[1,0.75,0],[0.75,1,0],[0.5,1,0],[0.25,1,0],[0,0.75,0],[0,0.5,0],[0,0.25,0]];" parent="1" vertex="1">
            <mxGeometry x="990" y="40" width="240" height="120" as="geometry" />
          </mxCell>
        </object>
        <object placeholders="1" c4Name="API" c4Type="" c4Technology="" c4Description="" label="&lt;font style=&quot;font-size: 16px&quot;&gt;&lt;b&gt;%c4Name%&lt;/b&gt;&lt;/font&gt;&lt;div&gt;[%c4Type%: %c4Technology%]&lt;/div&gt;&lt;br&gt;&lt;div&gt;&lt;font style=&quot;font-size: 11px&quot;&gt;%c4Description%&lt;/font&gt;&lt;/div&gt;" id="DwANkHHpPK6kCwV7qqPZ-5">
          <mxCell style="rounded=1;whiteSpace=wrap;html=1;labelBackgroundColor=none;fillColor=#63BEF2;fontColor=#ffffff;align=center;arcSize=6;strokeColor=#2086C9;metaEdit=1;resizable=0;points=[[0.25,0,0],[0.5,0,0],[0.75,0,0],[1,0.25,0],[1,0.5,0],[1,0.75,0],[0.75,1,0],[0.5,1,0],[0.25,1,0],[0,0.75,0],[0,0.5,0],[0,0.25,0]];" parent="1" vertex="1">
            <mxGeometry x="630" y="240" width="240" height="120" as="geometry" />
          </mxCell>
        </object>
        <object placeholders="1" c4Name="Account Management Controller" c4Type="Component" c4Technology="" c4Description="Quản lý tài khoản" label="&lt;font style=&quot;font-size: 16px&quot;&gt;&lt;b&gt;%c4Name%&lt;/b&gt;&lt;/font&gt;&lt;div&gt;[%c4Type%: %c4Technology%]&lt;/div&gt;&lt;br&gt;&lt;div&gt;&lt;font style=&quot;font-size: 11px&quot;&gt;%c4Description%&lt;/font&gt;&lt;/div&gt;" id="DwANkHHpPK6kCwV7qqPZ-8">
          <mxCell style="rounded=1;whiteSpace=wrap;html=1;labelBackgroundColor=none;fillColor=#63BEF2;fontColor=#ffffff;align=center;arcSize=6;strokeColor=#2086C9;metaEdit=1;resizable=0;points=[[0.25,0,0],[0.5,0,0],[0.75,0,0],[1,0.25,0],[1,0.5,0],[1,0.75,0],[0.75,1,0],[0.5,1,0],[0.25,1,0],[0,0.75,0],[0,0.5,0],[0,0.25,0]];" parent="1" vertex="1">
            <mxGeometry x="1000" y="760" width="240" height="120" as="geometry" />
          </mxCell>
        </object>
        <object placeholders="1" c4Name="User Data" c4Type="Database" c4Technology="" c4Description="Lưu trữ thông tin tài khoản" label="&lt;font style=&quot;font-size: 16px&quot;&gt;&lt;b&gt;%c4Name%&lt;/b&gt;&lt;/font&gt;&lt;div&gt;[%c4Type%:&amp;nbsp;%c4Technology%]&lt;/div&gt;&lt;br&gt;&lt;div&gt;&lt;font style=&quot;font-size: 11px&quot;&gt;&lt;font color=&quot;#E6E6E6&quot;&gt;%c4Description%&lt;/font&gt;&lt;/div&gt;" id="DwANkHHpPK6kCwV7qqPZ-9">
          <mxCell style="shape=cylinder3;size=15;whiteSpace=wrap;html=1;boundedLbl=1;rounded=0;labelBackgroundColor=none;fillColor=#23A2D9;fontSize=12;fontColor=#ffffff;align=center;strokeColor=#0E7DAD;metaEdit=1;points=[[0.5,0,0],[1,0.25,0],[1,0.5,0],[1,0.75,0],[0.5,1,0],[0,0.75,0],[0,0.5,0],[0,0.25,0]];resizable=0;" parent="1" vertex="1">
            <mxGeometry x="920" y="1540" width="240" height="120" as="geometry" />
          </mxCell>
        </object>
        <object placeholders="1" c4Name="Book Data" c4Type="Database" c4Technology="" c4Description="Lưu trữ thông tin sách" label="&lt;font style=&quot;font-size: 16px&quot;&gt;&lt;b&gt;%c4Name%&lt;/b&gt;&lt;/font&gt;&lt;div&gt;[%c4Type%:&amp;nbsp;%c4Technology%]&lt;/div&gt;&lt;br&gt;&lt;div&gt;&lt;font style=&quot;font-size: 11px&quot;&gt;&lt;font color=&quot;#E6E6E6&quot;&gt;%c4Description%&lt;/font&gt;&lt;/div&gt;" id="DwANkHHpPK6kCwV7qqPZ-10">
          <mxCell style="shape=cylinder3;size=15;whiteSpace=wrap;html=1;boundedLbl=1;rounded=0;labelBackgroundColor=none;fillColor=#23A2D9;fontSize=12;fontColor=#ffffff;align=center;strokeColor=#0E7DAD;metaEdit=1;points=[[0.5,0,0],[1,0.25,0],[1,0.5,0],[1,0.75,0],[0.5,1,0],[0,0.75,0],[0,0.5,0],[0,0.25,0]];resizable=0;" parent="1" vertex="1">
            <mxGeometry x="80" y="1540" width="240" height="120" as="geometry" />
          </mxCell>
        </object>
        <object placeholders="1" c4Name="Borrow/Return Data" c4Type="Database" c4Technology="" c4Description="Lưu trữ thông tin mượn trả sách" label="&lt;font style=&quot;font-size: 16px&quot;&gt;&lt;b&gt;%c4Name%&lt;/b&gt;&lt;/font&gt;&lt;div&gt;[%c4Type%:&amp;nbsp;%c4Technology%]&lt;/div&gt;&lt;br&gt;&lt;div&gt;&lt;font style=&quot;font-size: 11px&quot;&gt;&lt;font color=&quot;#E6E6E6&quot;&gt;%c4Description%&lt;/font&gt;&lt;/div&gt;" id="DwANkHHpPK6kCwV7qqPZ-11">
          <mxCell style="shape=cylinder3;size=15;whiteSpace=wrap;html=1;boundedLbl=1;rounded=0;labelBackgroundColor=none;fillColor=#23A2D9;fontSize=12;fontColor=#ffffff;align=center;strokeColor=#0E7DAD;metaEdit=1;points=[[0.5,0,0],[1,0.25,0],[1,0.5,0],[1,0.75,0],[0.5,1,0],[0,0.75,0],[0,0.5,0],[0,0.25,0]];resizable=0;" parent="1" vertex="1">
            <mxGeometry x="360" y="1540" width="240" height="120" as="geometry" />
          </mxCell>
        </object>
        <object placeholders="1" c4Name="Borrow/Return Controller" c4Type="Component" c4Technology="" c4Description="Quản lý việc mượn trả sách, xem lịch sử mượn trả sách, xử lý yêu cầu mượn trả sách" label="&lt;font style=&quot;font-size: 16px&quot;&gt;&lt;b&gt;%c4Name%&lt;/b&gt;&lt;/font&gt;&lt;div&gt;[%c4Type%: %c4Technology%]&lt;/div&gt;&lt;br&gt;&lt;div&gt;&lt;font style=&quot;font-size: 11px&quot;&gt;%c4Description%&lt;/font&gt;&lt;/div&gt;" id="DwANkHHpPK6kCwV7qqPZ-12">
          <mxCell style="rounded=1;whiteSpace=wrap;html=1;labelBackgroundColor=none;fillColor=#63BEF2;fontColor=#ffffff;align=center;arcSize=6;strokeColor=#2086C9;metaEdit=1;resizable=0;points=[[0.25,0,0],[0.5,0,0],[0.75,0,0],[1,0.25,0],[1,0.5,0],[1,0.75,0],[0.75,1,0],[0.5,1,0],[0.25,1,0],[0,0.75,0],[0,0.5,0],[0,0.25,0]];" parent="1" vertex="1">
            <mxGeometry x="670" y="760" width="240" height="120" as="geometry" />
          </mxCell>
        </object>
        <object placeholders="1" c4Name="Search Controller" c4Type="Component" c4Technology="" c4Description="Quản lý việc tìm kiếm sách" label="&lt;font style=&quot;font-size: 16px&quot;&gt;&lt;b&gt;%c4Name%&lt;/b&gt;&lt;/font&gt;&lt;div&gt;[%c4Type%: %c4Technology%]&lt;/div&gt;&lt;br&gt;&lt;div&gt;&lt;font style=&quot;font-size: 11px&quot;&gt;%c4Description%&lt;/font&gt;&lt;/div&gt;" id="DwANkHHpPK6kCwV7qqPZ-13">
          <mxCell style="rounded=1;whiteSpace=wrap;html=1;labelBackgroundColor=none;fillColor=#63BEF2;fontColor=#ffffff;align=center;arcSize=6;strokeColor=#2086C9;metaEdit=1;resizable=0;points=[[0.25,0,0],[0.5,0,0],[0.75,0,0],[1,0.25,0],[1,0.5,0],[1,0.75,0],[0.75,1,0],[0.5,1,0],[0.25,1,0],[0,0.75,0],[0,0.5,0],[0,0.25,0]];" parent="1" vertex="1">
            <mxGeometry x="80" y="560" width="240" height="120" as="geometry" />
          </mxCell>
        </object>
        <mxCell id="DwANkHHpPK6kCwV7qqPZ-16" value="" style="edgeStyle=orthogonalEdgeStyle;rounded=0;orthogonalLoop=1;jettySize=auto;html=1;dashed=1;" parent="1" source="DwANkHHpPK6kCwV7qqPZ-14" target="DwANkHHpPK6kCwV7qqPZ-39" edge="1">
          <mxGeometry relative="1" as="geometry" />
        </mxCell>
        <object placeholders="1" c4Name="Search Data" c4Type="Database" c4Technology="" c4Description="Lưu trữ thông tin tìm kiếm sách" label="&lt;font style=&quot;font-size: 16px&quot;&gt;&lt;b&gt;%c4Name%&lt;/b&gt;&lt;/font&gt;&lt;div&gt;[%c4Type%:&amp;nbsp;%c4Technology%]&lt;/div&gt;&lt;br&gt;&lt;div&gt;&lt;font style=&quot;font-size: 11px&quot;&gt;&lt;font color=&quot;#E6E6E6&quot;&gt;%c4Description%&lt;/font&gt;&lt;/div&gt;" id="DwANkHHpPK6kCwV7qqPZ-14">
          <mxCell style="shape=cylinder3;size=15;whiteSpace=wrap;html=1;boundedLbl=1;rounded=0;labelBackgroundColor=none;fillColor=#23A2D9;fontSize=12;fontColor=#ffffff;align=center;strokeColor=#0E7DAD;metaEdit=1;points=[[0.5,0,0],[1,0.25,0],[1,0.5,0],[1,0.75,0],[0.5,1,0],[0,0.75,0],[0,0.5,0],[0,0.25,0]];resizable=0;" parent="1" vertex="1">
            <mxGeometry x="80" y="1360" width="240" height="120" as="geometry" />
          </mxCell>
        </object>
        <mxCell id="DwANkHHpPK6kCwV7qqPZ-15" value="" style="edgeStyle=none;orthogonalLoop=1;jettySize=auto;html=1;rounded=0;dashed=1;" parent="1" source="DwANkHHpPK6kCwV7qqPZ-13" target="DwANkHHpPK6kCwV7qqPZ-14" edge="1">
          <mxGeometry width="100" relative="1" as="geometry">
            <mxPoint x="160" y="840" as="sourcePoint" />
            <mxPoint x="260" y="840" as="targetPoint" />
            <Array as="points" />
          </mxGeometry>
        </mxCell>
        <object placeholders="1" c4Name="Book Management Controller" c4Type="Component" c4Technology="" c4Description="Quản lý kho sách" label="&lt;font style=&quot;font-size: 16px&quot;&gt;&lt;b&gt;%c4Name%&lt;/b&gt;&lt;/font&gt;&lt;div&gt;[%c4Type%: %c4Technology%]&lt;/div&gt;&lt;br&gt;&lt;div&gt;&lt;font style=&quot;font-size: 11px&quot;&gt;%c4Description%&lt;/font&gt;&lt;/div&gt;" id="DwANkHHpPK6kCwV7qqPZ-22">
          <mxCell style="rounded=1;whiteSpace=wrap;html=1;labelBackgroundColor=none;fillColor=#63BEF2;fontColor=#ffffff;align=center;arcSize=6;strokeColor=#2086C9;metaEdit=1;resizable=0;points=[[0.25,0,0],[0.5,0,0],[0.75,0,0],[1,0.25,0],[1,0.5,0],[1,0.75,0],[0.75,1,0],[0.5,1,0],[0.25,1,0],[0,0.75,0],[0,0.5,0],[0,0.25,0]];" parent="1" vertex="1">
            <mxGeometry x="1000" y="560" width="240" height="120" as="geometry" />
          </mxCell>
        </object>
        <object placeholders="1" c4Name="Payment Data" c4Type="Database" c4Technology="" c4Description="Lưu trữ thông tin thanh toán" label="&lt;font style=&quot;font-size: 16px&quot;&gt;&lt;b&gt;%c4Name%&lt;/b&gt;&lt;/font&gt;&lt;div&gt;[%c4Type%:&amp;nbsp;%c4Technology%]&lt;/div&gt;&lt;br&gt;&lt;div&gt;&lt;font style=&quot;font-size: 11px&quot;&gt;&lt;font color=&quot;#E6E6E6&quot;&gt;%c4Description%&lt;/font&gt;&lt;/div&gt;" id="DwANkHHpPK6kCwV7qqPZ-25">
          <mxCell style="shape=cylinder3;size=15;whiteSpace=wrap;html=1;boundedLbl=1;rounded=0;labelBackgroundColor=none;fillColor=#23A2D9;fontSize=12;fontColor=#ffffff;align=center;strokeColor=#0E7DAD;metaEdit=1;points=[[0.5,0,0],[1,0.25,0],[1,0.5,0],[1,0.75,0],[0.5,1,0],[0,0.75,0],[0,0.5,0],[0,0.25,0]];resizable=0;" parent="1" vertex="1">
            <mxGeometry x="640" y="1540" width="240" height="120" as="geometry" />
          </mxCell>
        </object>
        <mxCell id="DwANkHHpPK6kCwV7qqPZ-27" value="" style="endArrow=classic;html=1;rounded=0;dashed=1;" parent="1" source="DwANkHHpPK6kCwV7qqPZ-8" target="DwANkHHpPK6kCwV7qqPZ-9" edge="1">
          <mxGeometry width="50" height="50" relative="1" as="geometry">
            <mxPoint x="950" y="900" as="sourcePoint" />
            <mxPoint x="1000" y="850" as="targetPoint" />
          </mxGeometry>
        </mxCell>
        <object placeholders="1" c4Name="Sign in Controller" c4Type="Component" c4Technology="" c4Description="Quản lý đăng nhập" label="&lt;font style=&quot;font-size: 16px&quot;&gt;&lt;b&gt;%c4Name%&lt;/b&gt;&lt;/font&gt;&lt;div&gt;[%c4Type%: %c4Technology%]&lt;/div&gt;&lt;br&gt;&lt;div&gt;&lt;font style=&quot;font-size: 11px&quot;&gt;%c4Description%&lt;/font&gt;&lt;/div&gt;" id="DwANkHHpPK6kCwV7qqPZ-30">
          <mxCell style="rounded=1;whiteSpace=wrap;html=1;labelBackgroundColor=none;fillColor=#63BEF2;fontColor=#ffffff;align=center;arcSize=6;strokeColor=#2086C9;metaEdit=1;resizable=0;points=[[0.25,0,0],[0.5,0,0],[0.75,0,0],[1,0.25,0],[1,0.5,0],[1,0.75,0],[0.75,1,0],[0.5,1,0],[0.25,1,0],[0,0.75,0],[0,0.5,0],[0,0.25,0]];" parent="1" vertex="1">
            <mxGeometry x="660" y="560" width="240" height="120" as="geometry" />
          </mxCell>
        </object>
        <object placeholders="1" c4Name="Payment Controller" c4Type="Component" c4Technology="" c4Description="Quản lý việc thanh toán phí thành viên, gian hạn mượn sách" label="&lt;font style=&quot;font-size: 16px&quot;&gt;&lt;b&gt;%c4Name%&lt;/b&gt;&lt;/font&gt;&lt;div&gt;[%c4Type%: %c4Technology%]&lt;/div&gt;&lt;br&gt;&lt;div&gt;&lt;font style=&quot;font-size: 11px&quot;&gt;%c4Description%&lt;/font&gt;&lt;/div&gt;" id="DwANkHHpPK6kCwV7qqPZ-33">
          <mxCell style="rounded=1;whiteSpace=wrap;html=1;labelBackgroundColor=none;fillColor=#63BEF2;fontColor=#ffffff;align=center;arcSize=6;strokeColor=#2086C9;metaEdit=1;resizable=0;points=[[0.25,0,0],[0.5,0,0],[0.75,0,0],[1,0.25,0],[1,0.5,0],[1,0.75,0],[0.75,1,0],[0.5,1,0],[0.25,1,0],[0,0.75,0],[0,0.5,0],[0,0.25,0]];" parent="1" vertex="1">
            <mxGeometry x="360" y="560" width="240" height="120" as="geometry" />
          </mxCell>
        </object>
        <object placeholders="1" c4Name="Hệ thống thanh toán" c4Type="Software System" c4Description="Xử lý thanh toán phí thành viên và phí trễ hạn" label="&lt;font style=&quot;font-size: 16px&quot;&gt;&lt;b&gt;%c4Name%&lt;/b&gt;&lt;/font&gt;&lt;div&gt;[%c4Type%]&lt;/div&gt;&lt;br&gt;&lt;div&gt;&lt;font style=&quot;font-size: 11px&quot;&gt;&lt;font color=&quot;#cccccc&quot;&gt;%c4Description%&lt;/font&gt;&lt;/div&gt;" id="DwANkHHpPK6kCwV7qqPZ-37">
          <mxCell style="rounded=1;whiteSpace=wrap;html=1;labelBackgroundColor=none;fillColor=#8C8496;fontColor=#ffffff;align=center;arcSize=10;strokeColor=#736782;metaEdit=1;resizable=0;points=[[0.25,0,0],[0.5,0,0],[0.75,0,0],[1,0.25,0],[1,0.5,0],[1,0.75,0],[0.75,1,0],[0.5,1,0],[0.25,1,0],[0,0.75,0],[0,0.5,0],[0,0.25,0]];" parent="1" vertex="1">
            <mxGeometry x="1600" y="1100" width="240" height="120" as="geometry" />
          </mxCell>
        </object>
        <object placeholders="1" c4Name="Hệ thống Email" c4Type="Software System" c4Description="Hệ thống Microsoft email tích hợp" label="&lt;font style=&quot;font-size: 16px&quot;&gt;&lt;b&gt;%c4Name%&lt;/b&gt;&lt;/font&gt;&lt;div&gt;[%c4Type%]&lt;/div&gt;&lt;br&gt;&lt;div&gt;&lt;font style=&quot;font-size: 11px&quot;&gt;&lt;font color=&quot;#cccccc&quot;&gt;%c4Description%&lt;/font&gt;&lt;/div&gt;" id="DwANkHHpPK6kCwV7qqPZ-38">
          <mxCell style="rounded=1;whiteSpace=wrap;html=1;labelBackgroundColor=none;fillColor=#8C8496;fontColor=#ffffff;align=center;arcSize=10;strokeColor=#736782;metaEdit=1;resizable=0;points=[[0.25,0,0],[0.5,0,0],[0.75,0,0],[1,0.25,0],[1,0.5,0],[1,0.75,0],[0.75,1,0],[0.5,1,0],[0.25,1,0],[0,0.75,0],[0,0.5,0],[0,0.25,0]];" parent="1" vertex="1">
            <mxGeometry x="1610" y="670" width="240" height="120" as="geometry" />
          </mxCell>
        </object>
        <object placeholders="1" c4Name="Library Data" c4Type="Database" c4Technology="" c4Description="Lưu trữ thông tin thư viện" label="&lt;font style=&quot;font-size: 16px&quot;&gt;&lt;b&gt;%c4Name%&lt;/b&gt;&lt;/font&gt;&lt;div&gt;[%c4Type%:&amp;nbsp;%c4Technology%]&lt;/div&gt;&lt;br&gt;&lt;div&gt;&lt;font style=&quot;font-size: 11px&quot;&gt;&lt;font color=&quot;#E6E6E6&quot;&gt;%c4Description%&lt;/font&gt;&lt;/div&gt;" id="DwANkHHpPK6kCwV7qqPZ-39">
          <mxCell style="shape=cylinder3;size=15;whiteSpace=wrap;html=1;boundedLbl=1;rounded=0;labelBackgroundColor=none;fillColor=#23A2D9;fontSize=12;fontColor=#ffffff;align=center;strokeColor=#0E7DAD;metaEdit=1;points=[[0.5,0,0],[1,0.25,0],[1,0.5,0],[1,0.75,0],[0.5,1,0],[0,0.75,0],[0,0.5,0],[0,0.25,0]];resizable=0;" parent="1" vertex="1">
            <mxGeometry x="-200" y="1540" width="240" height="120" as="geometry" />
          </mxCell>
        </object>
        <mxCell id="DwANkHHpPK6kCwV7qqPZ-43" value="" style="endArrow=classic;html=1;rounded=0;dashed=1;" parent="1" source="DwANkHHpPK6kCwV7qqPZ-30" target="DwANkHHpPK6kCwV7qqPZ-8" edge="1">
          <mxGeometry width="50" height="50" relative="1" as="geometry">
            <mxPoint x="620" y="970" as="sourcePoint" />
            <mxPoint x="670" y="920" as="targetPoint" />
          </mxGeometry>
        </mxCell>
        <mxCell id="DwANkHHpPK6kCwV7qqPZ-46" value="" style="endArrow=classic;html=1;rounded=0;dashed=1;" parent="1" source="DwANkHHpPK6kCwV7qqPZ-33" target="DwANkHHpPK6kCwV7qqPZ-11" edge="1">
          <mxGeometry width="50" height="50" relative="1" as="geometry">
            <mxPoint x="610" y="980" as="sourcePoint" />
            <mxPoint x="660" y="930" as="targetPoint" />
          </mxGeometry>
        </mxCell>
        <mxCell id="DwANkHHpPK6kCwV7qqPZ-47" value="" style="endArrow=classic;html=1;rounded=0;dashed=1;" parent="1" source="DwANkHHpPK6kCwV7qqPZ-33" target="DwANkHHpPK6kCwV7qqPZ-25" edge="1">
          <mxGeometry width="50" height="50" relative="1" as="geometry">
            <mxPoint x="610" y="980" as="sourcePoint" />
            <mxPoint x="660" y="930" as="targetPoint" />
          </mxGeometry>
        </mxCell>
        <mxCell id="DwANkHHpPK6kCwV7qqPZ-48" value="" style="endArrow=classic;html=1;rounded=0;dashed=1;" parent="1" source="DwANkHHpPK6kCwV7qqPZ-22" target="DwANkHHpPK6kCwV7qqPZ-10" edge="1">
          <mxGeometry width="50" height="50" relative="1" as="geometry">
            <mxPoint x="610" y="980" as="sourcePoint" />
            <mxPoint x="660" y="930" as="targetPoint" />
            <Array as="points">
              <mxPoint x="960" y="620" />
              <mxPoint x="960" y="1220" />
              <mxPoint x="400" y="1220" />
              <mxPoint x="400" y="1480" />
            </Array>
          </mxGeometry>
        </mxCell>
        <mxCell id="DwANkHHpPK6kCwV7qqPZ-50" value="" style="endArrow=classic;html=1;rounded=0;entryX=0.667;entryY=0.004;entryDx=0;entryDy=0;entryPerimeter=0;dashed=1;" parent="1" source="DwANkHHpPK6kCwV7qqPZ-22" target="DwANkHHpPK6kCwV7qqPZ-39" edge="1">
          <mxGeometry width="50" height="50" relative="1" as="geometry">
            <mxPoint x="1010" y="630" as="sourcePoint" />
            <mxPoint x="277" y="1200" as="targetPoint" />
            <Array as="points">
              <mxPoint x="1300" y="620" />
              <mxPoint x="1300" y="1080" />
              <mxPoint x="-40" y="1080" />
            </Array>
          </mxGeometry>
        </mxCell>
        <mxCell id="DwANkHHpPK6kCwV7qqPZ-51" value="" style="endArrow=classic;html=1;rounded=0;dashed=1;" parent="1" source="DwANkHHpPK6kCwV7qqPZ-8" target="DwANkHHpPK6kCwV7qqPZ-11" edge="1">
          <mxGeometry width="50" height="50" relative="1" as="geometry">
            <mxPoint x="610" y="980" as="sourcePoint" />
            <mxPoint x="660" y="930" as="targetPoint" />
            <Array as="points">
              <mxPoint x="1120" y="1270" />
            </Array>
          </mxGeometry>
        </mxCell>
        <mxCell id="DwANkHHpPK6kCwV7qqPZ-52" value="" style="edgeStyle=none;orthogonalLoop=1;jettySize=auto;html=1;rounded=0;entryX=0.671;entryY=-0.014;entryDx=0;entryDy=0;entryPerimeter=0;dashed=1;" parent="1" source="DwANkHHpPK6kCwV7qqPZ-12" target="DwANkHHpPK6kCwV7qqPZ-11" edge="1">
          <mxGeometry width="100" relative="1" as="geometry">
            <mxPoint x="380" y="870" as="sourcePoint" />
            <mxPoint x="590" y="1010" as="targetPoint" />
            <Array as="points">
              <mxPoint x="521" y="820" />
              <mxPoint x="520" y="1170" />
            </Array>
          </mxGeometry>
        </mxCell>
        <mxCell id="DwANkHHpPK6kCwV7qqPZ-56" value="&lt;font&gt;Database&lt;/font&gt;" style="rounded=0;whiteSpace=wrap;html=1;fillColor=none;dashed=1;dashPattern=8 8;verticalAlign=top;fontSize=30;" parent="1" vertex="1">
          <mxGeometry x="-225" y="1330" width="1420" height="380" as="geometry" />
        </mxCell>
        <object placeholders="1" c4Name="Email Controller" c4Type="Component" c4Technology="" c4Description="Xử lý email thanh toán, thông tin tài khoản" label="&lt;font style=&quot;font-size: 16px&quot;&gt;&lt;b&gt;%c4Name%&lt;/b&gt;&lt;/font&gt;&lt;div&gt;[%c4Type%: %c4Technology%]&lt;/div&gt;&lt;br&gt;&lt;div&gt;&lt;font style=&quot;font-size: 11px&quot;&gt;%c4Description%&lt;/font&gt;&lt;/div&gt;" id="DwANkHHpPK6kCwV7qqPZ-59">
          <mxCell style="rounded=1;whiteSpace=wrap;html=1;labelBackgroundColor=none;fillColor=#63BEF2;fontColor=#ffffff;align=center;arcSize=6;strokeColor=#2086C9;metaEdit=1;resizable=0;points=[[0.25,0,0],[0.5,0,0],[0.75,0,0],[1,0.25,0],[1,0.5,0],[1,0.75,0],[0.75,1,0],[0.5,1,0],[0.25,1,0],[0,0.75,0],[0,0.5,0],[0,0.25,0]];" parent="1" vertex="1">
            <mxGeometry x="670" y="940" width="240" height="120" as="geometry" />
          </mxCell>
        </object>
        <mxCell id="DwANkHHpPK6kCwV7qqPZ-62" value="" style="endArrow=classic;html=1;rounded=0;dashed=1;" parent="1" source="DwANkHHpPK6kCwV7qqPZ-33" target="DwANkHHpPK6kCwV7qqPZ-59" edge="1">
          <mxGeometry width="50" height="50" relative="1" as="geometry">
            <mxPoint x="740" y="990" as="sourcePoint" />
            <mxPoint x="790" y="940" as="targetPoint" />
            <Array as="points">
              <mxPoint x="600" y="860" />
            </Array>
          </mxGeometry>
        </mxCell>
        <mxCell id="DwANkHHpPK6kCwV7qqPZ-66" value="" style="endArrow=classic;html=1;rounded=0;dashed=1;" parent="1" source="DwANkHHpPK6kCwV7qqPZ-59" target="DwANkHHpPK6kCwV7qqPZ-38" edge="1">
          <mxGeometry width="50" height="50" relative="1" as="geometry">
            <mxPoint x="1180" y="950" as="sourcePoint" />
            <mxPoint x="1230" y="900" as="targetPoint" />
            <Array as="points">
              <mxPoint x="1730" y="1000" />
            </Array>
          </mxGeometry>
        </mxCell>
        <mxCell id="DwANkHHpPK6kCwV7qqPZ-67" value="" style="endArrow=classic;html=1;rounded=0;exitX=0.211;exitY=1.031;exitDx=0;exitDy=0;exitPerimeter=0;dashed=1;" parent="1" source="DwANkHHpPK6kCwV7qqPZ-33" target="DwANkHHpPK6kCwV7qqPZ-37" edge="1">
          <mxGeometry width="50" height="50" relative="1" as="geometry">
            <mxPoint x="1180" y="950" as="sourcePoint" />
            <mxPoint x="1230" y="900" as="targetPoint" />
            <Array as="points">
              <mxPoint x="410" y="1160" />
            </Array>
          </mxGeometry>
        </mxCell>
        <mxCell id="DwANkHHpPK6kCwV7qqPZ-68" value="" style="endArrow=classic;html=1;rounded=0;" parent="1" source="DwANkHHpPK6kCwV7qqPZ-8" target="DwANkHHpPK6kCwV7qqPZ-59" edge="1">
          <mxGeometry width="50" height="50" relative="1" as="geometry">
            <mxPoint x="1180" y="1070" as="sourcePoint" />
            <mxPoint x="1230" y="1020" as="targetPoint" />
          </mxGeometry>
        </mxCell>
        <mxCell id="DwANkHHpPK6kCwV7qqPZ-70" value="Gọi API" style="endArrow=classic;html=1;rounded=0;" parent="1" source="DwANkHHpPK6kCwV7qqPZ-3" target="DwANkHHpPK6kCwV7qqPZ-5" edge="1">
          <mxGeometry width="50" height="50" relative="1" as="geometry">
            <mxPoint x="580" y="770" as="sourcePoint" />
            <mxPoint x="630" y="720" as="targetPoint" />
          </mxGeometry>
        </mxCell>
        <mxCell id="DwANkHHpPK6kCwV7qqPZ-71" value="Gọi API" style="endArrow=classic;html=1;rounded=0;" parent="1" source="DwANkHHpPK6kCwV7qqPZ-4" target="DwANkHHpPK6kCwV7qqPZ-5" edge="1">
          <mxGeometry width="50" height="50" relative="1" as="geometry">
            <mxPoint x="528" y="160" as="sourcePoint" />
            <mxPoint x="667" y="250" as="targetPoint" />
          </mxGeometry>
        </mxCell>
        <object placeholders="1" c4Name="API Application" c4Type="ContainerScopeBoundary" c4Application="Container" label="&lt;font&gt;&lt;b&gt;&lt;div style=&quot;text-align: left&quot;&gt;%c4Name%&lt;/div&gt;&lt;/b&gt;&lt;/font&gt;&lt;div style=&quot;text-align: left&quot;&gt;[%c4Application%]&lt;/div&gt;" id="DwANkHHpPK6kCwV7qqPZ-73">
          <mxCell style="rounded=1;fontSize=25;whiteSpace=wrap;html=1;dashed=1;arcSize=20;fillColor=none;strokeColor=#666666;fontColor=#333333;labelBackgroundColor=none;align=left;verticalAlign=bottom;labelBorderColor=none;spacingTop=0;spacing=10;dashPattern=8 4;metaEdit=1;rotatable=0;perimeter=rectanglePerimeter;noLabel=0;labelPadding=0;allowArrows=0;connectable=0;expand=0;recursiveResize=0;editable=1;pointerEvents=0;absoluteArcSize=1;points=[[0.25,0,0],[0.5,0,0],[0.75,0,0],[1,0.25,0],[1,0.5,0],[1,0.75,0],[0.75,1,0],[0.5,1,0],[0.25,1,0],[0,0.75,0],[0,0.5,0],[0,0.25,0]];" parent="1" vertex="1">
            <mxGeometry x="-80" y="220" width="1520" height="1010" as="geometry" />
          </mxCell>
        </object>
        <mxCell id="M9dbmQv1LtMvUEHxcacL-1" value="" style="endArrow=classic;html=1;rounded=0;" parent="1" source="DwANkHHpPK6kCwV7qqPZ-5" target="DwANkHHpPK6kCwV7qqPZ-13" edge="1">
          <mxGeometry width="50" height="50" relative="1" as="geometry">
            <mxPoint x="570" y="740" as="sourcePoint" />
            <mxPoint x="350" y="420" as="targetPoint" />
          </mxGeometry>
        </mxCell>
        <mxCell id="M9dbmQv1LtMvUEHxcacL-2" value="" style="endArrow=classic;html=1;rounded=0;" parent="1" source="DwANkHHpPK6kCwV7qqPZ-5" target="DwANkHHpPK6kCwV7qqPZ-33" edge="1">
          <mxGeometry width="50" height="50" relative="1" as="geometry">
            <mxPoint x="657" y="370" as="sourcePoint" />
            <mxPoint x="313" y="570" as="targetPoint" />
          </mxGeometry>
        </mxCell>
        <mxCell id="M9dbmQv1LtMvUEHxcacL-3" value="" style="endArrow=classic;html=1;rounded=0;" parent="1" source="DwANkHHpPK6kCwV7qqPZ-5" target="DwANkHHpPK6kCwV7qqPZ-30" edge="1">
          <mxGeometry width="50" height="50" relative="1" as="geometry">
            <mxPoint x="709" y="370" as="sourcePoint" />
            <mxPoint x="541" y="570" as="targetPoint" />
          </mxGeometry>
        </mxCell>
        <mxCell id="M9dbmQv1LtMvUEHxcacL-4" value="" style="endArrow=classic;html=1;rounded=0;" parent="1" source="DwANkHHpPK6kCwV7qqPZ-5" target="DwANkHHpPK6kCwV7qqPZ-22" edge="1">
          <mxGeometry width="50" height="50" relative="1" as="geometry">
            <mxPoint x="766" y="370" as="sourcePoint" />
            <mxPoint x="784" y="570" as="targetPoint" />
          </mxGeometry>
        </mxCell>
        <mxCell id="M9dbmQv1LtMvUEHxcacL-5" value="" style="endArrow=classic;html=1;rounded=0;" parent="1" source="DwANkHHpPK6kCwV7qqPZ-5" target="DwANkHHpPK6kCwV7qqPZ-12" edge="1">
          <mxGeometry width="50" height="50" relative="1" as="geometry">
            <mxPoint x="829" y="370" as="sourcePoint" />
            <mxPoint x="1061" y="570" as="targetPoint" />
            <Array as="points">
              <mxPoint x="650" y="480" />
              <mxPoint x="640" y="770" />
            </Array>
          </mxGeometry>
        </mxCell>
        <mxCell id="M9dbmQv1LtMvUEHxcacL-7" value="" style="endArrow=classic;html=1;rounded=0;" parent="1" source="DwANkHHpPK6kCwV7qqPZ-5" target="DwANkHHpPK6kCwV7qqPZ-59" edge="1">
          <mxGeometry width="50" height="50" relative="1" as="geometry">
            <mxPoint x="766" y="370" as="sourcePoint" />
            <mxPoint x="784" y="570" as="targetPoint" />
            <Array as="points">
              <mxPoint x="630" y="480" />
              <mxPoint x="620" y="850" />
            </Array>
          </mxGeometry>
        </mxCell>
        <mxCell id="M9dbmQv1LtMvUEHxcacL-8" value="" style="endArrow=classic;html=1;rounded=0;" parent="1" source="DwANkHHpPK6kCwV7qqPZ-5" target="DwANkHHpPK6kCwV7qqPZ-8" edge="1">
          <mxGeometry width="50" height="50" relative="1" as="geometry">
            <mxPoint x="829" y="370" as="sourcePoint" />
            <mxPoint x="1061" y="570" as="targetPoint" />
            <Array as="points">
              <mxPoint x="1340" y="490" />
              <mxPoint x="1340" y="820" />
            </Array>
          </mxGeometry>
        </mxCell>
        <mxCell id="M9dbmQv1LtMvUEHxcacL-9" value="Người đọc" style="rounded=1;whiteSpace=wrap;html=1;fillColor=none;dashed=1;arcSize=3;dashPattern=12 12;fontSize=25;verticalAlign=top;" parent="1" vertex="1">
          <mxGeometry x="30" y="490" width="910" height="640" as="geometry" />
        </mxCell>
        <mxCell id="M9dbmQv1LtMvUEHxcacL-10" value="Thủ thư / Admin" style="rounded=1;whiteSpace=wrap;html=1;fillColor=none;dashed=1;arcSize=3;dashPattern=12 12;fontSize=25;verticalAlign=top;" parent="1" vertex="1">
          <mxGeometry x="630" y="430" width="760" height="760" as="geometry" />
        </mxCell>
      </root>
    </mxGraphModel>
  </diagram>
</mxfile>
